<svg width="26" height="31" viewBox="0 0 26 31" fill="none" xmlns="http://www.w3.org/2000/svg">
<path d="M10.0811 13.7253L12.9991 20.2982L17.3248 17.7584V12.6553L10.0811 13.7253Z" fill="#2E8378"/>
<path d="M22.922 8.83342L20.2214 7.79868L17.3262 7.55176V12.6549V23.4491L21.6633 26.0007L25.1192 18.8163L22.922 11.9024V8.83342Z" fill="#4CEBBB"/>
<path d="M22.6701 7.55176L21.6631 10.1033V25.9536L26.0002 23.4021V7.55176H22.6701Z" fill="#2E8378"/>
<path d="M21.6633 5L17.3262 7.55157L21.6633 10.1031L26.0004 7.55157L21.6633 5Z" fill="#1B7065"/>
<path d="M12.9998 15.2065L8.66274 10.2444L0 7.55176V23.4021L4.33709 25.9536L5.57299 17.1819L8.66274 17.758L12.9998 20.2979V15.2065Z" fill="#4CEBBB"/>
<path d="M4.33709 5L0 7.55157L12.9998 15.2063L14.9567 14.054L17.3255 12.6547L4.33709 5Z" fill="#1B7065"/>
<path d="M4.33691 15.2061V25.9532L8.66256 23.4017V17.7576L4.33691 15.2061Z" fill="#2E8378"/>
</svg>
