<svg width="97" height="88" viewBox="0 0 97 88" fill="none" xmlns="http://www.w3.org/2000/svg">
<g clip-path="url(#clip0_207_215)">
<path d="M48.4936 87.9869C40.21 87.9869 31.9231 87.9508 23.6394 87.9968C16.7287 88.0361 10.7169 85.9846 5.90011 80.8606C-0.589164 73.9642 -1.92587 63.4602 2.89088 55.3033C11.7177 40.368 20.5479 25.4294 29.5657 10.609C38.1753 -3.53848 58.8284 -3.5352 67.4412 10.6189C76.4887 25.4885 85.3913 40.4468 94.1885 55.4608C101.675 68.2395 93.4378 85.2624 78.7571 87.6094C77.0879 87.8753 75.3726 87.9606 73.677 87.9705C65.2814 88.0066 56.8892 87.9869 48.4936 87.9869V87.9869ZM44.3156 39.7082C44.3156 45.3376 44.3287 50.9671 44.309 56.5998C44.3024 58.4512 44.9411 59.9316 46.6334 60.7981C49.5175 62.2752 52.6519 60.1679 52.6683 56.6917C52.7045 48.3838 52.6815 40.0758 52.6815 31.7646C52.6815 28.6495 52.7045 25.5344 52.6683 22.4161C52.642 20.2792 51.6279 18.7857 49.9093 18.185C47.0087 17.174 44.3584 19.1697 44.332 22.485C44.2859 28.2228 44.3189 33.9639 44.3156 39.7016V39.7082ZM48.5133 74.3777C50.8147 74.3712 52.6914 72.4706 52.665 70.1795C52.6387 67.9375 50.8312 66.1387 48.5693 66.096C46.2548 66.0534 44.3452 67.9047 44.332 70.2057C44.3189 72.4969 46.212 74.3876 48.5133 74.3777V74.3777Z" fill="url(#paint0_linear_207_215)"/>
</g>
<defs>
<linearGradient id="paint0_linear_207_215" x1="48.5013" y1="0.000854492" x2="48.5013" y2="87.9973" gradientUnits="userSpaceOnUse">
<stop stop-color="#4CEBBB"/>
<stop offset="1" stop-color="#4CEBBB" stop-opacity="0"/>
</linearGradient>
<clipPath id="clip0_207_215">
<rect width="97" height="88" fill="white"/>
</clipPath>
</defs>
</svg>
