<svg width="460" height="460" viewBox="0 0 460 460" fill="none" xmlns="http://www.w3.org/2000/svg">
<g clip-path="url(#clip0_177_38)">
<path d="M369.27 100.081C388.718 119.529 388.718 151.061 369.27 170.508C349.822 189.956 318.29 189.956 298.843 170.508C279.395 151.061 279.395 119.529 298.843 100.081C318.29 80.6333 349.822 80.6332 369.27 100.081Z" fill="url(#paint0_linear_177_38)"/>
<path d="M283.783 349.922L322.11 311.576V311.586C329.59 304.115 341.706 304.106 349.186 311.586L444.084 406.484C446.964 409.363 448.583 413.273 448.583 417.349H448.592V422.869C448.592 436.089 437.874 446.798 424.663 446.798H35.3556C22.1352 446.798 11.4264 436.08 11.4264 422.869V417.349H11.4172V383.888C11.4172 377.54 13.938 371.459 18.4276 366.97L140.677 244.711C148.148 237.24 160.273 237.24 167.744 244.711L272.955 349.922C275.945 352.912 280.793 352.912 283.783 349.922Z" fill="url(#paint1_linear_177_38)"/>
</g>
<defs>
<linearGradient id="paint0_linear_177_38" x1="230.005" y1="85.4952" x2="230.005" y2="446.798" gradientUnits="userSpaceOnUse">
<stop stop-color="#4CEBBB"/>
<stop offset="1" stop-color="#4CEBBB" stop-opacity="0"/>
</linearGradient>
<linearGradient id="paint1_linear_177_38" x1="230.005" y1="85.4952" x2="230.005" y2="446.798" gradientUnits="userSpaceOnUse">
<stop stop-color="#4CEBBB"/>
<stop offset="1" stop-color="#4CEBBB" stop-opacity="0"/>
</linearGradient>
<clipPath id="clip0_177_38">
<rect width="460" height="460" fill="white"/>
</clipPath>
</defs>
</svg>
