<?xml version="1.0" encoding="utf-8"?>
<!-- Generator: Adobe Illustrator 26.5.0, SVG Export Plug-In . SVG Version: 6.00 Build 0)  -->
<svg version="1.1" id="Layer_1" xmlns="http://www.w3.org/2000/svg" xmlns:xlink="http://www.w3.org/1999/xlink" x="0px" y="0px"
	 viewBox="0 0 149.3 20" style="enable-background:new 0 0 149.3 20;" xml:space="preserve">
<style type="text/css">
	.st0{fill:#4CEBBB;}
	.st1{fill:#FFFFFF;}
</style>
<g>
	<path class="st0" d="M14.4,10.6L5.6,0.8H0.1v15.3l6.6,3.3V9.4l8.8,9.9H21V4.1l-6.5-3.3V10.6z M22.7,19.3h6.6v-6.7H40V8.5H29.4V5
		h11.5V0.8H22.7V19.3z M59.6,0.8H42.2v4.2h6.6v14.4h6.7V4.9H62L59.6,0.8z"/>
	<path class="st1" d="M95.6,11.2c0,1.7-0.4,3-1.2,3.7c-0.8,0.6-1.8,1-3.1,1c-1.4,0-2.4-0.3-3.2-1.1c-0.5-0.4-0.8-0.9-1-1.5
		c-0.2-0.5-0.2-1.2-0.2-2V0.8l-6.6,3.3v8.7c0,1.6,0.3,2.9,1,3.9c0.4,0.6,1,1.2,1.7,1.6s1.4,0.8,2,1c0.6,0.2,1.4,0.4,2.3,0.5
		c0.9,0.1,1.6,0.2,2.1,0.2c0.5,0,1.1,0,1.8,0c4.3,0,7.4-0.8,9.1-2.4c0.6-0.6,1-1.2,1.4-2c0.3-0.8,0.5-1.5,0.5-2.1
		c0.1-0.6,0.1-1.4,0.1-2.4v-7l-6.6-3.3V11.2z M124,10.6c-0.2-0.3-0.6-0.6-1-0.9c-0.5-0.3-0.8-0.5-1.1-0.6c-0.3-0.1-0.7-0.3-1.3-0.5
		c-0.6-0.2-1-0.3-1.2-0.3c-0.2,0-0.6-0.1-1.2-0.2l-2.3-0.5c-1.5-0.3-2.5-0.6-3-0.8c-0.5-0.2-0.8-0.6-0.8-1.1c0-1,1-1.5,2.9-1.5
		c0.5,0,0.9,0,1.3,0.1s0.8,0.2,1.2,0.5s0.7,0.7,0.8,1.2l6.5-0.4c-0.1-0.8-0.3-1.4-0.6-2c-0.7-1.2-1.8-2.1-3.3-2.6
		c-1.4-0.5-3.3-0.7-5.8-0.7c-4.2,0-6.9,1-8.4,3c-0.7,0.9-1,1.9-1,3c0,1.5,0.5,2.7,1.5,3.5c1,0.8,2.7,1.4,4.9,1.9l4.5,0.9
		c1.3,0.3,1.9,0.8,1.9,1.6c0,0.6-0.3,1-0.9,1.4c-0.6,0.3-1.4,0.5-2.4,0.5c-2.4,0-3.8-0.7-4.1-2.1l-6.5,0.2c0.4,4.1,3.7,6.1,9.7,6.1
		c4.7,0,7.9-1,9.5-3.1c0.8-1,1.2-2.2,1.2-3.5c0-0.6-0.1-1.1-0.3-1.6C124.5,11.3,124.3,10.9,124,10.6z M142.6,0.8v6.8h-8.1V0.8h-6.7
		v15.3l6.7,3.3v-7.1h8.1v7.1h6.7V4.1L142.6,0.8z M74.8,11.2c0.6-0.4,1-0.7,1.3-1.1c0.3-0.4,0.5-0.8,0.7-1.3C76.9,8.3,77,7.9,77,7.6
		c0-0.3,0.1-0.6,0.1-0.9c0-1.2-0.3-2.3-0.9-3.3c-0.7-1.1-1.5-1.8-2.6-2.1c-1-0.3-2.3-0.5-3.8-0.5H59.6L62,5l0.8,0h5.5
		c0.9,0,1.5,0.3,1.9,0.8c0.2,0.3,0.3,0.6,0.3,0.9c0,0.4-0.1,0.8-0.4,1.1c-0.4,0.4-1.1,0.7-2.3,0.7h-3.8l6.2,10.9h7.3l-4.6-7.4
		C73.6,11.8,74.2,11.5,74.8,11.2z"/>
</g>
</svg>
