<svg width="70" height="70" viewBox="0 0 70 70" fill="none" xmlns="http://www.w3.org/2000/svg">
<path fill-rule="evenodd" clip-rule="evenodd" d="M41.1872 32.7633H49.26C50.4841 32.7633 51.4458 31.7513 51.4458 30.5309C51.4458 29.2808 50.4841 28.2985 49.26 28.2985H41.1872C39.9631 28.2985 39.0014 29.2808 39.0014 30.5309C39.0014 31.7513 39.9631 32.7633 41.1872 32.7633ZM58.8484 17.2885C60.6262 17.2885 61.7919 17.9136 62.9577 19.2828C64.1234 20.6519 64.3274 22.6164 64.0652 24.3993L61.2965 43.9251C60.7719 47.6784 57.6243 50.4436 53.9231 50.4436H22.127C18.2509 50.4436 15.045 47.4105 14.7244 43.4816L12.0432 11.0349L7.64246 10.261C6.4767 10.0527 5.66067 8.89186 5.86468 7.70126C6.06869 6.48388 7.2053 5.67725 8.4002 5.85882L15.351 6.92738C16.3419 7.10894 17.0705 7.93938 17.158 8.95139L17.7117 15.6187C17.7991 16.5742 18.5569 17.2885 19.4895 17.2885H58.8484ZM21.6601 55.1479C19.212 55.1479 17.2302 57.1719 17.2302 59.6722C17.2302 62.1427 19.212 64.1667 21.6601 64.1667C24.0791 64.1667 26.0609 62.1427 26.0609 59.6722C26.0609 57.1719 24.0791 55.1479 21.6601 55.1479ZM54.4471 55.1479C51.999 55.1479 50.0172 57.1719 50.0172 59.6722C50.0172 62.1427 51.999 64.1667 54.4471 64.1667C56.866 64.1667 58.8478 62.1427 58.8478 59.6722C58.8478 57.1719 56.866 55.1479 54.4471 55.1479Z" fill="#4CEBBB"/>
</svg>
