<svg width="70" height="70" viewBox="0 0 70 70" fill="none" xmlns="http://www.w3.org/2000/svg">
<path fill-rule="evenodd" clip-rule="evenodd" d="M51.826 24.4469H64.1667C64.1667 14.5384 58.2297 8.75 48.1704 8.75H21.8297C11.7704 8.75 5.83337 14.5384 5.83337 24.3205V45.6795C5.83337 55.4616 11.7704 61.25 21.8297 61.25H48.1704C58.2297 61.25 64.1667 55.4616 64.1667 45.6795V44.7695H51.826C46.0986 44.7695 41.4556 40.2428 41.4556 34.6588C41.4556 29.0748 46.0986 24.548 51.826 24.548V24.4469ZM51.826 28.7945H61.9889C63.1917 28.7945 64.1667 29.7451 64.1667 30.9178V38.2986C64.1527 39.4656 63.1858 40.4082 61.9889 40.4219H52.0593C49.1598 40.4599 46.6244 38.5244 45.9667 35.7709C45.6374 34.0617 46.0997 32.2979 47.2298 30.9523C48.36 29.6067 50.0423 28.8169 51.826 28.7945ZM52.2667 36.5545H53.226C54.4574 36.5545 55.4556 35.5813 55.4556 34.3807C55.4556 33.1802 54.4574 32.2069 53.226 32.2069H52.2667C51.6778 32.2002 51.1106 32.4235 50.6917 32.8272C50.2728 33.2309 50.037 33.7812 50.0371 34.3554C50.037 35.5602 51.0311 36.5407 52.2667 36.5545ZM19.6519 24.4469H36.1149C37.3462 24.4469 38.3445 23.4737 38.3445 22.2731C38.3445 21.0725 37.3462 20.0993 36.1149 20.0993H19.6519C18.4306 20.0992 17.4365 21.0572 17.4223 22.2478C17.4222 23.4526 18.4163 24.4331 19.6519 24.4469Z" fill="#4CEBBB"/>
</svg>
