<svg width="70" height="70" viewBox="0 0 70 70" fill="none" xmlns="http://www.w3.org/2000/svg">
<path fill-rule="evenodd" clip-rule="evenodd" d="M27.3478 58.4147L52.9748 25.2742C54.3676 23.4871 54.8628 21.4209 54.3985 19.3171C53.9961 17.4045 52.82 15.586 51.0559 14.2065L46.7537 10.7889C43.0087 7.81036 38.3662 8.1239 35.7044 11.5414L32.8261 15.2756C32.4547 15.7428 32.5475 16.4325 33.0118 16.8088C33.0118 16.8088 40.2851 22.6405 40.4399 22.7659C40.9351 23.2362 41.3065 23.8633 41.3993 24.6158C41.5541 26.0894 40.5327 27.4689 39.0161 27.6571C38.3043 27.7511 37.6234 27.5316 37.1282 27.124L29.4834 21.0415C29.112 20.7624 28.5549 20.822 28.2454 21.1983L10.0775 44.7133C8.90137 46.1869 8.49901 48.0995 8.90137 49.9493L11.2227 60.0137C11.3465 60.5467 11.8107 60.923 12.3678 60.923L22.5815 60.7976C24.4385 60.7662 26.1717 59.9197 27.3478 58.4147ZM41.6491 55.2803H58.3035C59.9284 55.2803 61.25 56.6191 61.25 58.2652C61.25 59.9143 59.9284 61.25 58.3035 61.25H41.6491C40.0242 61.25 38.7026 59.9143 38.7026 58.2652C38.7026 56.6191 40.0242 55.2803 41.6491 55.2803Z" fill="#4CEBBB"/>
</svg>
