<svg width="70" height="70" viewBox="0 0 70 70" fill="none" xmlns="http://www.w3.org/2000/svg">
<path fill-rule="evenodd" clip-rule="evenodd" d="M22.2757 9.90325C14.7595 9.90325 9.90321 15.057 9.90321 23.0078V46.9653C9.90321 49.1966 10.3174 51.1887 11.0261 52.9124C11.0567 52.8759 11.7243 52.0623 12.5952 51.0011C14.297 48.9272 16.775 45.9074 16.7924 45.892C18.8107 43.5878 22.5995 40.152 27.5724 42.2316C28.6621 42.6834 29.6307 43.3024 30.5224 43.8722C30.6092 43.9276 30.6953 43.9827 30.7807 44.037C32.452 45.1541 33.4349 45.6791 34.4557 45.5916C34.8786 45.5333 35.2753 45.4078 35.6515 45.1745C37.0709 44.2995 40.7506 39.0857 41.8525 37.5243C42.0141 37.2953 42.1203 37.1449 42.1557 37.0983C45.3349 32.9566 50.2349 31.8483 54.3182 34.2983C54.8665 34.6249 58.7953 37.3695 60.0961 38.472V23.0078C60.0961 15.057 55.2399 9.90325 47.6974 9.90325H22.2757ZM47.6974 5.8345C57.547 5.8345 64.1649 12.7237 64.1649 23.0078V46.9653C64.1649 47.224 64.1377 47.4666 64.1106 47.709C64.0915 47.8793 64.0724 48.0496 64.0628 48.2253C64.0565 48.3316 64.0535 48.4378 64.0505 48.5441C64.0464 48.6858 64.0424 48.8274 64.0307 48.9691C64.0249 49.0245 64.0139 49.0777 64.003 49.131C63.9921 49.1842 63.9811 49.2374 63.9753 49.2928C63.879 50.2087 63.7303 51.0837 63.5232 51.9324C63.4743 52.1445 63.4177 52.3491 63.3606 52.5554L63.3482 52.6003C63.1149 53.4228 62.8407 54.2074 62.5111 54.957C62.4534 55.083 62.3925 55.2058 62.3316 55.3287C62.291 55.4106 62.2504 55.4925 62.2107 55.5753C61.8549 56.2899 61.4699 56.9753 61.0236 57.6112C60.9411 57.7289 60.8532 57.8391 60.7652 57.9497C60.707 58.0227 60.6488 58.0958 60.592 58.1712C60.1282 58.772 59.644 59.3466 59.0957 59.8687C58.9862 59.9728 58.8679 60.068 58.7496 60.1633C58.6756 60.2228 58.6017 60.2824 58.5299 60.3441C57.967 60.8282 57.3924 61.292 56.7595 61.6887C56.6213 61.7754 56.4746 61.8482 56.3284 61.9208C56.2338 61.9677 56.1394 62.0145 56.0478 62.0649C55.4032 62.4207 54.7528 62.7678 54.044 63.0362C53.8735 63.101 53.6921 63.1478 53.5101 63.1948C53.3808 63.2282 53.2513 63.2616 53.1253 63.3016C53.0622 63.3211 52.9992 63.3407 52.9362 63.3603C52.3031 63.5573 51.672 63.7536 50.9903 63.8703C50.5953 63.9396 50.1762 63.9661 49.7567 63.9927C49.5753 64.0043 49.3937 64.0158 49.214 64.0307C49.0209 64.0452 48.8315 64.0685 48.6419 64.0918C48.3334 64.1298 48.0243 64.1678 47.6974 64.1678H22.2757C21.179 64.1678 20.132 64.057 19.1199 63.8908C19.082 63.8849 19.047 63.8791 19.012 63.8732C15.0657 63.1937 11.7903 61.2891 9.49488 58.4162C9.47893 58.4162 9.47267 58.4054 9.46434 58.3911C9.45894 58.3818 9.45268 58.3711 9.44238 58.3608C7.13529 55.4558 5.83154 51.5503 5.83154 46.9653V23.0078C5.83154 12.7237 12.4553 5.8345 22.2757 5.8345H47.6974ZM32.0833 24.8353C32.0833 28.7872 28.7766 32.0833 24.8058 32.0833C21.3154 32.0833 18.3393 29.5332 17.6724 26.2314C17.5621 25.736 17.5 25.2266 17.5 24.7002C17.5 20.7201 20.7332 17.5 24.7295 17.5C26.7643 17.5 28.607 18.3557 29.9269 19.7209C31.2524 21.0382 32.0833 22.8537 32.0833 24.8353Z" fill="#4CEBBB"/>
</svg>
